<svg xmlns="http://www.w3.org/2000/svg" version="1.1" xmlns:xlink="http://www.w3.org/1999/xlink" xmlns:svgjs="http://svgjs.dev/svgjs" width="2000" height="434" viewBox="0 0 2000 434"><g transform="matrix(1,0,0,1,-1.2121212121212466,-0.1231369710536967)"><svg viewBox="0 0 396 86" data-background-color="#ffffff" preserveAspectRatio="xMidYMid meet" height="434" width="2000" xmlns="http://www.w3.org/2000/svg" xmlns:xlink="http://www.w3.org/1999/xlink"><g id="tight-bounds" transform="matrix(1,0,0,1,0.2400000000000091,0.027016223343991896)"><svg viewBox="0 0 395.52 85.945967553312" height="85.945967553312" width="395.52"><g><svg viewBox="0 0 395.52 85.945967553312" height="85.945967553312" width="395.52"><g><svg viewBox="0 0 395.52 85.945967553312" height="85.945967553312" width="395.52"><g><svg viewBox="0 0 596.3275803856908 129.5811864759649" height="85.945967553312" width="395.52"><g transform="matrix(1,0,0,1,200.80758038569084,17.908832573740447)"><svg viewBox="0 0 395.52 93.763521328484" height="93.763521328484" width="395.52"><g><svg viewBox="0 0 395.52 93.763521328484" height="93.763521328484" width="395.52"><g><svg viewBox="0 0 395.52 48.37294964028777" height="48.37294964028777" width="395.52"><g transform="matrix(1,0,0,1,0,0)"><svg width="395.52" viewBox="3.65 -33.5 277.98 34" height="48.37294964028777" data-palette-color="#c56e33"><path d="M29.3-33L29.3-26.35 12.25-26.35 12.25-19.35 25.85-19.35 25.85-12.7 12.25-12.7 12.25 0 3.65 0 3.65-33 29.3-33ZM49.05-33.5L49.05-33.5Q54.05-33.5 57.67-31.48 61.3-29.45 63.25-25.65 65.2-21.85 65.2-16.5L65.2-16.5Q65.2-11.15 63.25-7.35 61.3-3.55 57.67-1.53 54.05 0.5 49.05 0.5L49.05 0.5Q44.05 0.5 40.4-1.53 36.75-3.55 34.8-7.35 32.85-11.15 32.85-16.5L32.85-16.5Q32.85-21.85 34.8-25.65 36.75-29.45 40.4-31.48 44.05-33.5 49.05-33.5ZM49.05-26.75L49.05-26.75Q46.65-26.75 45-25.6 43.35-24.45 42.5-22.18 41.65-19.9 41.65-16.5L41.65-16.5Q41.65-13.15 42.5-10.85 43.35-8.55 45-7.4 46.65-6.25 49.05-6.25L49.05-6.25Q51.45-6.25 53.07-7.4 54.7-8.55 55.55-10.85 56.4-13.15 56.4-16.5L56.4-16.5Q56.4-19.9 55.55-22.18 54.7-24.45 53.07-25.6 51.45-26.75 49.05-26.75ZM85.9-33.5L85.9-33.5Q90.9-33.5 94.52-31.48 98.15-29.45 100.09-25.65 102.05-21.85 102.05-16.5L102.05-16.5Q102.05-11.15 100.09-7.35 98.15-3.55 94.52-1.53 90.9 0.5 85.9 0.5L85.9 0.5Q80.9 0.5 77.25-1.53 73.6-3.55 71.65-7.35 69.7-11.15 69.7-16.5L69.7-16.5Q69.7-21.85 71.65-25.65 73.6-29.45 77.25-31.48 80.9-33.5 85.9-33.5ZM85.9-26.75L85.9-26.75Q83.5-26.75 81.85-25.6 80.2-24.45 79.35-22.18 78.5-19.9 78.5-16.5L78.5-16.5Q78.5-13.15 79.35-10.85 80.2-8.55 81.85-7.4 83.5-6.25 85.9-6.25L85.9-6.25Q88.3-6.25 89.92-7.4 91.55-8.55 92.4-10.85 93.25-13.15 93.25-16.5L93.25-16.5Q93.25-19.9 92.4-22.18 91.55-24.45 89.92-25.6 88.3-26.75 85.9-26.75ZM107.94-33L121.94-33Q129.69-33 133.82-28.7 137.94-24.4 137.94-16.5L137.94-16.5Q137.94-8.6 133.82-4.3 129.69 0 121.94 0L121.94 0 107.94 0 107.94-33ZM116.54-6.5L121.09-6.5Q125.29-6.5 127.22-9.03 129.14-11.55 129.14-16.5L129.14-16.5Q129.14-21.45 127.22-23.98 125.29-26.5 121.09-26.5L121.09-26.5 116.54-26.5 116.54-6.5ZM169.74-26.8L148.79-3.6 147.29-6.5 170.34-6.5 170.34 0 142.04 0 142.04-6.2 163.09-29.4 164.59-26.5 142.39-26.5 142.39-33 169.74-33 169.74-26.8ZM175.54-33L184.14-33 184.14 0 175.54 0 175.54-33ZM200.04-33L200.04-6.65 216.59-6.65 216.59 0 191.44 0 191.44-33 200.04-33ZM230.13-33L230.13-6.65 246.68-6.65 246.68 0 221.53 0 221.53-33 230.13-33ZM256.83 0L248.18 0 259.78-33 270.08-33 281.63 0 272.78 0 266.33-21.2 264.88-26.4 264.78-26.4 263.43-21.25 256.83 0ZM274.08-7.45L255.73-7.45 255.73-13.3 274.08-13.3 274.08-7.45Z" opacity="1" transform="matrix(1,0,0,1,0,0)" fill="#c56e33" class="undefined-text-0" data-fill-palette-color="primary" id="text-0"></path></svg></g></svg></g><g transform="matrix(1,0,0,1,94.9248,59.79264209956835)"><svg viewBox="0 0 300.5952 33.970879228915656" height="33.970879228915656" width="300.5952"><g transform="matrix(1,0,0,1,0,0)"><svg width="300.5952" viewBox="2.85 -36.9 414.96999999999997 46.9" height="33.970879228915656" data-palette-color="#551e19"><path d="M9.15-3.6L9.15 0 2.85 0 2.85-35 9.15-35 9.15-21.2 10.05-21.2Q11.05-23.25 12.95-24.38 14.85-25.5 17.8-25.5L17.8-25.5Q20-25.5 21.98-24.65 23.95-23.8 25.43-22.18 26.9-20.55 27.78-18.2 28.65-15.85 28.65-12.85L28.65-12.85 28.65-11.95Q28.65-8.9 27.8-6.55 26.95-4.2 25.5-2.58 24.05-0.95 22.08-0.13 20.1 0.7 17.8 0.7L17.8 0.7Q16.1 0.7 14.85 0.35 13.6 0 12.68-0.6 11.75-1.2 11.13-1.98 10.5-2.75 10.05-3.6L10.05-3.6 9.15-3.6ZM15.75-5.3L15.75-5.3Q18.7-5.3 20.53-7.13 22.35-8.95 22.35-12.1L22.35-12.1 22.35-12.7Q22.35-15.85 20.53-17.68 18.7-19.5 15.75-19.5L15.75-19.5Q12.8-19.5 10.98-17.63 9.15-15.75 9.15-12.7L9.15-12.7 9.15-12.1Q9.15-9.05 10.98-7.18 12.8-5.3 15.75-5.3ZM51.3-11.8L51.3-24.8 57.6-24.8 57.6 0 51.3 0 51.3-3.6 50.4-3.6Q48.75 0.7 43.3 0.7L43.3 0.7Q41.45 0.7 39.85 0.1 38.25-0.5 37.05-1.75 35.85-3 35.17-4.88 34.5-6.75 34.5-9.3L34.5-9.3 34.5-24.8 40.8-24.8 40.8-10.6Q40.8-7.95 42.05-6.48 43.3-5 45.8-5L45.8-5Q48.65-5 49.97-6.83 51.3-8.65 51.3-11.8L51.3-11.8ZM89.4-12.7L89.4-12.1Q89.4-9 88.35-6.63 87.3-4.25 85.5-2.63 83.7-1 81.37-0.15 79.05 0.7 76.5 0.7L76.5 0.7Q73.95 0.7 71.62-0.15 69.3-1 67.5-2.63 65.7-4.25 64.65-6.63 63.6-9 63.6-12.1L63.6-12.1 63.6-12.7Q63.6-15.75 64.65-18.13 65.7-20.5 67.5-22.15 69.3-23.8 71.62-24.65 73.95-25.5 76.5-25.5L76.5-25.5Q79.05-25.5 81.37-24.65 83.7-23.8 85.5-22.15 87.3-20.5 88.35-18.13 89.4-15.75 89.4-12.7L89.4-12.7ZM76.5-5.3L76.5-5.3Q77.85-5.3 79.05-5.75 80.25-6.2 81.15-7.05 82.05-7.9 82.57-9.13 83.1-10.35 83.1-11.9L83.1-11.9 83.1-12.9Q83.1-14.45 82.57-15.68 82.05-16.9 81.15-17.75 80.25-18.6 79.05-19.05 77.85-19.5 76.5-19.5L76.5-19.5Q75.15-19.5 73.95-19.05 72.75-18.6 71.85-17.75 70.95-16.9 70.42-15.68 69.9-14.45 69.9-12.9L69.9-12.9 69.9-11.9Q69.9-10.35 70.42-9.13 70.95-7.9 71.85-7.05 72.75-6.2 73.95-5.75 75.15-5.3 76.5-5.3ZM101.99-12.9L101.99 0 95.69 0 95.69-24.8 101.99-24.8 101.99-21.1 102.89-21.1Q103.74-23.2 105.64-24.35 107.54-25.5 110.09-25.5L110.09-25.5Q111.89-25.5 113.47-24.93 115.04-24.35 116.24-23.15 117.44-21.95 118.12-20.1 118.79-18.25 118.79-15.7L118.79-15.7 118.79 0 112.49 0 112.49-14.1Q112.49-16.75 111.22-18.28 109.94-19.8 107.54-19.8L107.54-19.8Q104.74-19.8 103.37-17.93 101.99-16.05 101.99-12.9L101.99-12.9ZM173.84-3.6L172.94-3.6Q171.94-1.25 170.14-0.28 168.34 0.7 165.94 0.7L165.94 0.7Q163.69 0.7 161.71-0.15 159.74-1 158.24-2.65 156.74-4.3 155.86-6.65 154.99-9 154.99-12L154.99-12 154.99-12.8Q154.99-15.75 155.84-18.1 156.69-20.45 158.14-22.1 159.59-23.75 161.51-24.63 163.44-25.5 165.64-25.5L165.64-25.5Q168.29-25.5 169.91-24.6 171.54-23.7 172.49-21.8L172.49-21.8 173.39-21.8 173.39-24.8 179.69-24.8 179.69-7.5Q179.69-6 181.04-6L181.04-6 181.99-6 181.99 0 177.69 0Q175.99 0 174.91-1 173.84-2 173.84-3.6L173.84-3.6ZM167.34-5.3L167.34-5.3Q170.09-5.3 171.74-7.13 173.39-8.95 173.39-12.1L173.39-12.1 173.39-12.7Q173.39-15.85 171.74-17.68 170.09-19.5 167.34-19.5L167.34-19.5Q164.59-19.5 162.94-17.68 161.29-15.85 161.29-12.7L161.29-12.7 161.29-12.1Q161.29-8.95 162.94-7.13 164.59-5.3 167.34-5.3ZM192.49-3.6L192.49 10 186.19 10 186.19-24.8 192.49-24.8 192.49-21.2 193.39-21.2Q194.39-23.25 196.28-24.38 198.19-25.5 201.14-25.5L201.14-25.5Q203.34-25.5 205.31-24.65 207.29-23.8 208.76-22.18 210.24-20.55 211.11-18.2 211.99-15.85 211.99-12.85L211.99-12.85 211.99-11.95Q211.99-8.9 211.14-6.55 210.29-4.2 208.84-2.58 207.39-0.95 205.41-0.13 203.44 0.7 201.14 0.7L201.14 0.7Q199.44 0.7 198.19 0.35 196.94 0 196.01-0.6 195.09-1.2 194.46-1.98 193.84-2.75 193.39-3.6L193.39-3.6 192.49-3.6ZM199.09-5.3L199.09-5.3Q202.03-5.3 203.86-7.13 205.69-8.95 205.69-12.1L205.69-12.1 205.69-12.7Q205.69-15.85 203.86-17.68 202.03-19.5 199.09-19.5L199.09-19.5Q196.14-19.5 194.31-17.63 192.49-15.75 192.49-12.7L192.49-12.7 192.49-12.1Q192.49-9.05 194.31-7.18 196.14-5.3 199.09-5.3ZM223.08-3.6L223.08 10 216.78 10 216.78-24.8 223.08-24.8 223.08-21.2 223.98-21.2Q224.98-23.25 226.88-24.38 228.78-25.5 231.73-25.5L231.73-25.5Q233.93-25.5 235.91-24.65 237.88-23.8 239.36-22.18 240.83-20.55 241.71-18.2 242.58-15.85 242.58-12.85L242.58-12.85 242.58-11.95Q242.58-8.9 241.73-6.55 240.88-4.2 239.43-2.58 237.98-0.95 236.01-0.13 234.03 0.7 231.73 0.7L231.73 0.7Q230.03 0.7 228.78 0.35 227.53 0 226.61-0.6 225.68-1.2 225.06-1.98 224.43-2.75 223.98-3.6L223.98-3.6 223.08-3.6ZM229.68-5.3L229.68-5.3Q232.63-5.3 234.46-7.13 236.28-8.95 236.28-12.1L236.28-12.1 236.28-12.7Q236.28-15.85 234.46-17.68 232.63-19.5 229.68-19.5L229.68-19.5Q226.73-19.5 224.91-17.63 223.08-15.75 223.08-12.7L223.08-12.7 223.08-12.1Q223.08-9.05 224.91-7.18 226.73-5.3 229.68-5.3ZM272.43-10.35L254.23-10.35Q254.28-9.25 254.75-8.33 255.23-7.4 256.06-6.73 256.88-6.05 257.95-5.68 259.03-5.3 260.23-5.3L260.23-5.3Q262.58-5.3 263.83-6.13 265.08-6.95 265.63-8.1L265.63-8.1 271.03-5.1Q270.58-4.15 269.78-3.13 268.98-2.1 267.7-1.25 266.43-0.4 264.61 0.15 262.78 0.7 260.33 0.7L260.33 0.7Q257.53 0.7 255.23-0.2 252.93-1.1 251.25-2.8 249.58-4.5 248.66-6.95 247.73-9.4 247.73-12.5L247.73-12.5 247.73-12.8Q247.73-15.65 248.71-18 249.68-20.35 251.38-22 253.08-23.65 255.35-24.58 257.63-25.5 260.23-25.5L260.23-25.5Q263.43-25.5 265.73-24.38 268.03-23.25 269.53-21.53 271.03-19.8 271.73-17.73 272.43-15.65 272.43-13.7L272.43-13.7 272.43-10.35ZM260.18-19.8L260.18-19.8Q257.78-19.8 256.28-18.57 254.78-17.35 254.33-15.75L254.33-15.75 266.03-15.75Q265.73-17.5 264.15-18.65 262.58-19.8 260.18-19.8ZM278.58-18.8L278.58-24.8 285.93-24.8 285.93-35 292.23-35 292.23-24.8 301.18-24.8 301.18-18.8 292.23-18.8 292.23-7.5Q292.23-6 293.58-6L293.58-6 300.28-6 300.28 0 289.78 0Q288.08 0 287-1.1 285.93-2.2 285.93-3.9L285.93-3.9 285.93-18.8 278.58-18.8ZM310.33 0L310.33-6 318.73-6 318.73-18.8 310.93-18.8 310.93-24.8 325.03-24.8 325.03-6 332.23-6 332.23 0 310.33 0ZM326.58-32.15L326.58-32.15Q326.58-31.15 326.2-30.28 325.83-29.4 325.18-28.78 324.53-28.15 323.65-27.78 322.78-27.4 321.83-27.4L321.83-27.4Q320.83-27.4 319.98-27.78 319.13-28.15 318.48-28.78 317.83-29.4 317.45-30.28 317.08-31.15 317.08-32.15L317.08-32.15Q317.08-33.15 317.45-34.02 317.83-34.9 318.48-35.52 319.13-36.15 319.98-36.52 320.83-36.9 321.83-36.9L321.83-36.9Q322.78-36.9 323.65-36.52 324.53-36.15 325.18-35.52 325.83-34.9 326.2-34.02 326.58-33.15 326.58-32.15ZM339.77-18.8L339.77-24.8 347.12-24.8 347.12-35 353.42-35 353.42-24.8 362.37-24.8 362.37-18.8 353.42-18.8 353.42-7.5Q353.42-6 354.77-6L354.77-6 361.47-6 361.47 0 350.97 0Q349.27 0 348.2-1.1 347.12-2.2 347.12-3.9L347.12-3.9 347.12-18.8 339.77-18.8ZM395.37-12.7L395.37-12.1Q395.37-9 394.32-6.63 393.27-4.25 391.47-2.63 389.67-1 387.35-0.15 385.02 0.7 382.47 0.7L382.47 0.7Q379.92 0.7 377.6-0.15 375.27-1 373.47-2.63 371.67-4.25 370.62-6.63 369.57-9 369.57-12.1L369.57-12.1 369.57-12.7Q369.57-15.75 370.62-18.13 371.67-20.5 373.47-22.15 375.27-23.8 377.6-24.65 379.92-25.5 382.47-25.5L382.47-25.5Q385.02-25.5 387.35-24.65 389.67-23.8 391.47-22.15 393.27-20.5 394.32-18.13 395.37-15.75 395.37-12.7L395.37-12.7ZM382.47-5.3L382.47-5.3Q383.82-5.3 385.02-5.75 386.22-6.2 387.12-7.05 388.02-7.9 388.55-9.13 389.07-10.35 389.07-11.9L389.07-11.9 389.07-12.9Q389.07-14.45 388.55-15.68 388.02-16.9 387.12-17.75 386.22-18.6 385.02-19.05 383.82-19.5 382.47-19.5L382.47-19.5Q381.12-19.5 379.92-19.05 378.72-18.6 377.82-17.75 376.92-16.9 376.4-15.68 375.87-14.45 375.87-12.9L375.87-12.9 375.87-11.9Q375.87-10.35 376.4-9.13 376.92-7.9 377.82-7.05 378.72-6.2 379.92-5.75 381.12-5.3 382.47-5.3ZM409.77-35L416.37-35 416.37-10.6 409.77-10.6 409.77-35ZM417.82-4.05L417.82-4.05Q417.82-3.05 417.44-2.18 417.07-1.3 416.42-0.68 415.77-0.05 414.89 0.33 414.02 0.7 413.07 0.7L413.07 0.7Q412.07 0.7 411.22 0.33 410.37-0.05 409.72-0.68 409.07-1.3 408.69-2.18 408.32-3.05 408.32-4.05L408.32-4.05Q408.32-5.05 408.69-5.93 409.07-6.8 409.72-7.43 410.37-8.05 411.22-8.43 412.07-8.8 413.07-8.8L413.07-8.8Q414.02-8.8 414.89-8.43 415.77-8.05 416.42-7.43 417.07-6.8 417.44-5.93 417.82-5.05 417.82-4.05Z" opacity="1" transform="matrix(1,0,0,1,0,0)" fill="#551e19" class="undefined-text-1" data-fill-palette-color="secondary" id="text-1"></path></svg></g></svg></g></svg></g></svg></g><g><svg viewBox="0 0 189.38788792641026 129.5811864759649" height="129.5811864759649" width="189.38788792641026"><g><svg xmlns="http://www.w3.org/2000/svg" viewBox="10 14 76 52" x="0" y="0" height="129.5811864759649" width="189.38788792641026" class="icon-icon-0" data-fill-palette-color="accent" id="icon-0"><g fill="#551e19" data-fill-palette-color="accent"><path d="M38 24V16a2 2 0 0 1 4 0v8a2 2 0 0 1-4 0Zm18 6a2 2 0 0 0 2-2V24a2 2 0 0 0-4 0v4A2 2 0 0 0 56 30Zm-8 4a2 2 0 0 0 2-2V16a2 2 0 0 0-4 0V32A2 2 0 0 0 48 34ZM84 58H12a2 2 0 0 0 0 4h6a4 4 0 0 0 4 4H74a4 4 0 0 0 4-4h6a2 2 0 0 0 0-4ZM54 54a16 16 0 0 0-32 0H54Zm4 0H74V42H58Z" fill="#551e19" data-fill-palette-color="accent"></path></g></svg></g></svg></g></svg></g></svg></g></svg></g><defs></defs></svg><rect width="395.52" height="85.945967553312" fill="none" stroke="none" visibility="hidden"></rect></g></svg></g></svg>